<svg xmlns="http://www.w3.org/2000/svg" viewBox="0 0 400 300" width="406" height="306" class="illustration styles_illustrationTablet__1DWOa"><g id="_89_school" data-name="#89_school"><path d="M108.56,184.72c-.51-4.61-5-8.82-9.76-8.18,2.77-6.92-1.48-15.75-8.6-17.92-4.17-1.27-9.64.26-10.88,4.44a9.37,9.37,0,0,0-16.72,6.17c-4.42-2.65-10.52-.45-13.64,3.64-2.36,3.1-4.53,8.16-3.4,11.85Z" fill="#fff"></path><path d="M108.56,185.18h-63a.45.45,0,0,1-.44-.33c-1.16-3.78,1-9,3.47-12.26,2.95-3.86,8.83-6.39,13.55-4.13a9.83,9.83,0,0,1,17-6.29,6.91,6.91,0,0,1,3.15-3.27,10.83,10.83,0,0,1,8-.72A14.58,14.58,0,0,1,99.48,176a8.69,8.69,0,0,1,5.68,2,10.15,10.15,0,0,1,3.86,6.69.44.44,0,0,1-.12.35A.46.46,0,0,1,108.56,185.18Zm-62.65-.92H108a9.34,9.34,0,0,0-3.43-5.55A7.64,7.64,0,0,0,98.86,177a.47.47,0,0,1-.49-.63,13.61,13.61,0,0,0-8.31-17.31,9.93,9.93,0,0,0-7.32.65,5.92,5.92,0,0,0-3,3.48.46.46,0,0,1-.8.15,8.91,8.91,0,0,0-15.9,5.87.48.48,0,0,1-.23.42.49.49,0,0,1-.47,0c-4.39-2.63-10.18-.22-13,3.52C47.05,176.13,45.06,180.81,45.91,184.26Z" fill="#d1d3d4"></path><path d="M342.34,185.18H247.1a.46.46,0,0,1-.46-.46.45.45,0,0,1,.46-.46h95.24a.45.45,0,0,1,.46.46A.46.46,0,0,1,342.34,185.18Z" fill="#d1d3d4"></path><path d="M353.78,266.25a.37.37,0,0,1-.2-.05L198.41,189.53a.46.46,0,1,1,.41-.83L354,265.38a.46.46,0,0,1-.21.87Z" fill="#d1d3d4"></path><polygon points="82 66.59 240.82 66.59 247.1 99.52 75.72 99.52 82 66.59" fill="#fff"></polygon><path d="M247.1,100H75.72a.46.46,0,0,1-.35-.17.47.47,0,0,1-.1-.38l6.28-32.92a.46.46,0,0,1,.45-.38H240.82a.46.46,0,0,1,.45.38l6.28,32.92a.44.44,0,0,1-.1.38A.43.43,0,0,1,247.1,100ZM76.28,99.06H246.54l-6.1-32H82.38Z" fill="#d1d3d4"></path><rect x="79.52" y="99.52" width="163.79" height="86.24" fill="#fff"></rect><path d="M243.3,186.22H79.52a.46.46,0,0,1-.46-.46V99.52a.45.45,0,0,1,.46-.46H243.3a.45.45,0,0,1,.46.46v86.24A.46.46,0,0,1,243.3,186.22ZM80,185.3H242.84V100H80Z" fill="#d1d3d4"></path><polygon points="162.83 46.2 106.96 99.52 215.86 99.52 162.83 46.2" fill="#fff"></polygon><path d="M215.86,100H107a.47.47,0,0,1-.43-.29.46.46,0,0,1,.11-.51l55.87-53.31a.47.47,0,0,1,.65,0l53,53.31a.46.46,0,0,1,.1.5A.46.46,0,0,1,215.86,100Zm-107.75-.92H214.76L162.82,46.85Z" fill="#d1d3d4"></path><polygon points="162.51 52.22 113.44 99.52 209.38 99.52 162.51 52.22" fill="#fff"></polygon><path d="M209.38,100H113.44a.47.47,0,0,1-.43-.29.48.48,0,0,1,.11-.51l49.07-47.29a.46.46,0,0,1,.65,0l46.87,47.3a.46.46,0,0,1-.33.79Zm-94.8-.92h93.7L162.5,52.86Z" fill="#d1d3d4"></path><circle cx="161.41" cy="81.13" r="10.53" fill="#fff"></circle><path d="M161.41,92.12a11,11,0,1,1,11-11A11,11,0,0,1,161.41,92.12Zm0-21.06a10.07,10.07,0,1,0,10.07,10.07A10.08,10.08,0,0,0,161.41,71.06Z" fill="#d1d3d4"></path><rect x="127.38" y="181.41" width="68.06" height="4.34" fill="#fff"></rect><path d="M195.44,186.22H127.38a.46.46,0,0,1-.46-.46v-4.35a.46.46,0,0,1,.46-.46h68.06a.46.46,0,0,1,.46.46v4.35A.46.46,0,0,1,195.44,186.22Zm-67.6-.92H195v-3.43H127.84Z" fill="#d1d3d4"></path><rect x="129.79" y="177.07" width="63.24" height="4.34" fill="#fff"></rect><path d="M193,181.87H129.79a.46.46,0,0,1-.46-.46v-4.34a.46.46,0,0,1,.46-.46H193a.46.46,0,0,1,.46.46v4.34A.46.46,0,0,1,193,181.87ZM130.25,181h62.32v-3.42H130.25Z" fill="#d1d3d4"></path><rect x="136.13" y="172.72" width="50.57" height="4.34" fill="#fff"></rect><path d="M186.69,177.53H136.13a.46.46,0,0,1-.46-.46v-4.35a.46.46,0,0,1,.46-.46h50.56a.47.47,0,0,1,.47.46v4.35A.47.47,0,0,1,186.69,177.53Zm-50.1-.92h49.64v-3.43H136.59Z" fill="#d1d3d4"></path><rect x="136.13" y="136.36" width="50.57" height="8.9" fill="#fff"></rect><path d="M186.69,145.72H136.13a.46.46,0,0,1-.46-.46v-8.9a.46.46,0,0,1,.46-.46h50.56a.47.47,0,0,1,.47.46v8.9A.47.47,0,0,1,186.69,145.72Zm-50.1-.92h49.64v-8H136.59Z" fill="#d1d3d4"></path><rect x="129.77" y="155.97" width="27.46" height="6.05" transform="translate(302.5 15.49) rotate(90)" fill="#fff"></rect><path d="M146.53,173.18h-6.05a.46.46,0,0,1-.46-.46V145.26a.47.47,0,0,1,.46-.46h6.05a.47.47,0,0,1,.46.46v27.46A.46.46,0,0,1,146.53,173.18Zm-5.59-.92h5.13V145.72h-5.13Z" fill="#d1d3d4"></path><rect x="165.58" y="155.97" width="27.46" height="6.05" transform="translate(338.31 -20.32) rotate(90)" fill="#fff"></rect><path d="M182.34,173.18h-6.05a.46.46,0,0,1-.46-.46V145.26a.47.47,0,0,1,.46-.46h6.05a.47.47,0,0,1,.46.46v27.46A.46.46,0,0,1,182.34,173.18Zm-5.59-.92h5.13V145.72h-5.13Z" fill="#d1d3d4"></path><rect x="148.75" y="145.26" width="25.32" height="27.46" fill="#fff"></rect><path d="M174.07,173.18H148.75a.46.46,0,0,1-.46-.46V145.26a.47.47,0,0,1,.46-.46h25.32a.47.47,0,0,1,.46.46v27.46A.46.46,0,0,1,174.07,173.18Zm-24.86-.92h24.4V145.72h-24.4Z" fill="#d1d3d4"></path><path d="M161.41,173.18a.46.46,0,0,1-.46-.46V145.26a.46.46,0,0,1,.92,0v27.46A.46.46,0,0,1,161.41,173.18Z" fill="#d1d3d4"></path><rect x="151.07" y="149.16" width="8.61" height="13.33" fill="#fff"></rect><path d="M159.68,163h-8.61a.46.46,0,0,1-.46-.46V149.16a.47.47,0,0,1,.46-.46h8.61a.47.47,0,0,1,.46.46v13.33A.46.46,0,0,1,159.68,163Zm-8.15-.92h7.69V149.62h-7.69Z" fill="#d1d3d4"></path><rect x="163.14" y="149.16" width="8.61" height="13.33" fill="#fff"></rect><path d="M171.75,163h-8.61a.46.46,0,0,1-.46-.46V149.16a.47.47,0,0,1,.46-.46h8.61a.47.47,0,0,1,.46.46v13.33A.46.46,0,0,1,171.75,163ZM163.6,162h7.69V149.62H163.6Z" fill="#d1d3d4"></path><rect x="95.68" y="111.55" width="12.88" height="17.67" fill="#fff"></rect><path d="M108.56,129.69H95.67a.47.47,0,0,1-.46-.47V111.55a.47.47,0,0,1,.46-.46h12.89a.47.47,0,0,1,.46.46v17.67A.47.47,0,0,1,108.56,129.69Zm-12.42-.93h12V112h-12Z" fill="#d1d3d4"></path><path d="M102.12,129.69a.46.46,0,0,1-.46-.47V111.55a.46.46,0,0,1,.46-.46.47.47,0,0,1,.46.46v17.67A.47.47,0,0,1,102.12,129.69Z" fill="#d1d3d4"></path><path d="M108.56,117.53H95.67a.47.47,0,0,1,0-.93h12.89a.47.47,0,0,1,0,.93Z" fill="#d1d3d4"></path><path d="M108.56,124.17H95.67a.46.46,0,1,1,0-.92h12.89a.46.46,0,1,1,0,.92Z" fill="#d1d3d4"></path><rect x="119.39" y="111.55" width="12.88" height="17.67" fill="#fff"></rect><path d="M132.28,129.69H119.39a.47.47,0,0,1-.46-.47V111.55a.47.47,0,0,1,.46-.46h12.89a.47.47,0,0,1,.46.46v17.67A.47.47,0,0,1,132.28,129.69Zm-12.43-.93h12V112h-12Z" fill="#d1d3d4"></path><path d="M125.83,129.69a.47.47,0,0,1-.46-.47V111.55a.47.47,0,0,1,.46-.46.46.46,0,0,1,.46.46v17.67A.46.46,0,0,1,125.83,129.69Z" fill="#d1d3d4"></path><path d="M132.28,117.53H119.39a.47.47,0,0,1,0-.93h12.89a.47.47,0,0,1,0,.93Z" fill="#d1d3d4"></path><path d="M132.28,124.17H119.39a.46.46,0,1,1,0-.92h12.89a.46.46,0,1,1,0,.92Z" fill="#d1d3d4"></path><rect x="143.11" y="111.55" width="12.88" height="17.67" fill="#fff"></rect><path d="M156,129.69H143.11a.47.47,0,0,1-.46-.47V111.55a.47.47,0,0,1,.46-.46H156a.46.46,0,0,1,.46.46v17.67A.46.46,0,0,1,156,129.69Zm-12.42-.93h12V112h-12Z" fill="#d1d3d4"></path><path d="M149.55,129.69a.47.47,0,0,1-.46-.47V111.55a.47.47,0,0,1,.46-.46.46.46,0,0,1,.46.46v17.67A.46.46,0,0,1,149.55,129.69Z" fill="#d1d3d4"></path><path d="M156,117.53H143.11a.47.47,0,0,1,0-.93H156a.47.47,0,0,1,0,.93Z" fill="#d1d3d4"></path><path d="M156,124.17H143.11a.46.46,0,1,1,0-.92H156a.46.46,0,1,1,0,.92Z" fill="#d1d3d4"></path><rect x="166.83" y="111.55" width="12.88" height="17.67" fill="#fff"></rect><path d="M179.71,129.69H166.83a.46.46,0,0,1-.46-.47V111.55a.46.46,0,0,1,.46-.46h12.88a.47.47,0,0,1,.46.46v17.67A.47.47,0,0,1,179.71,129.69Zm-12.42-.93h12V112h-12Z" fill="#d1d3d4"></path><path d="M173.27,129.69a.47.47,0,0,1-.46-.47V111.55a.46.46,0,0,1,.92,0v17.67A.47.47,0,0,1,173.27,129.69Z" fill="#d1d3d4"></path><path d="M179.71,117.53H166.83a.47.47,0,0,1,0-.93h12.88a.47.47,0,0,1,0,.93Z" fill="#d1d3d4"></path><path d="M179.71,124.17H166.83a.46.46,0,0,1,0-.92h12.88a.46.46,0,1,1,0,.92Z" fill="#d1d3d4"></path><rect x="190.55" y="111.55" width="12.88" height="17.67" fill="#fff"></rect><path d="M203.43,129.69H190.55a.47.47,0,0,1-.47-.47V111.55a.47.47,0,0,1,.47-.46h12.88a.47.47,0,0,1,.46.46v17.67A.47.47,0,0,1,203.43,129.69ZM191,128.76h12V112H191Z" fill="#d1d3d4"></path><path d="M197,129.69a.46.46,0,0,1-.46-.47V111.55a.46.46,0,0,1,.46-.46.47.47,0,0,1,.46.46v17.67A.47.47,0,0,1,197,129.69Z" fill="#d1d3d4"></path><path d="M203.43,117.53H190.55a.47.47,0,1,1,0-.93h12.88a.47.47,0,0,1,0,.93Z" fill="#d1d3d4"></path><path d="M203.43,124.17H190.55a.46.46,0,1,1,0-.92h12.88a.46.46,0,1,1,0,.92Z" fill="#d1d3d4"></path><rect x="214.26" y="111.55" width="12.88" height="17.67" fill="#fff"></rect><path d="M227.15,129.69H214.26a.47.47,0,0,1-.46-.47V111.55a.47.47,0,0,1,.46-.46h12.89a.47.47,0,0,1,.46.46v17.67A.47.47,0,0,1,227.15,129.69Zm-12.43-.93h12V112h-12Z" fill="#d1d3d4"></path><path d="M220.71,129.69a.47.47,0,0,1-.47-.47V111.55a.47.47,0,0,1,.93,0v17.67A.47.47,0,0,1,220.71,129.69Z" fill="#d1d3d4"></path><path d="M227.15,117.53H214.26a.47.47,0,0,1,0-.93h12.89a.47.47,0,0,1,0,.93Z" fill="#d1d3d4"></path><path d="M227.15,124.17H214.26a.46.46,0,1,1,0-.92h12.89a.46.46,0,0,1,0,.92Z" fill="#d1d3d4"></path><rect x="95.68" y="147.37" width="12.88" height="17.67" fill="#fff"></rect><path d="M108.56,165.51H95.67a.47.47,0,0,1-.46-.46V147.37a.47.47,0,0,1,.46-.46h12.89a.47.47,0,0,1,.46.46v17.68A.47.47,0,0,1,108.56,165.51Zm-12.42-.92h12V147.83h-12Z" fill="#d1d3d4"></path><path d="M102.12,165.51a.46.46,0,0,1-.46-.46V147.37a.46.46,0,0,1,.46-.46.47.47,0,0,1,.46.46v17.68A.47.47,0,0,1,102.12,165.51Z" fill="#d1d3d4"></path><path d="M108.56,153.35H95.67a.47.47,0,0,1-.46-.46.46.46,0,0,1,.46-.46h12.89a.46.46,0,0,1,.46.46A.47.47,0,0,1,108.56,153.35Z" fill="#d1d3d4"></path><path d="M108.56,160H95.67a.46.46,0,0,1-.46-.46.47.47,0,0,1,.46-.46h12.89a.47.47,0,0,1,.46.46A.46.46,0,0,1,108.56,160Z" fill="#d1d3d4"></path><rect x="119.39" y="147.37" width="12.88" height="17.67" fill="#fff"></rect><path d="M132.28,165.51H119.39a.47.47,0,0,1-.46-.46V147.37a.47.47,0,0,1,.46-.46h12.89a.47.47,0,0,1,.46.46v17.68A.47.47,0,0,1,132.28,165.51Zm-12.43-.92h12V147.83h-12Z" fill="#d1d3d4"></path><path d="M125.83,165.51a.47.47,0,0,1-.46-.46V147.37a.47.47,0,0,1,.46-.46.46.46,0,0,1,.46.46v17.68A.46.46,0,0,1,125.83,165.51Z" fill="#d1d3d4"></path><path d="M132.28,153.35H119.39a.47.47,0,0,1-.46-.46.46.46,0,0,1,.46-.46h12.89a.46.46,0,0,1,.46.46A.47.47,0,0,1,132.28,153.35Z" fill="#d1d3d4"></path><path d="M132.28,160H119.39a.46.46,0,0,1-.46-.46.47.47,0,0,1,.46-.46h12.89a.47.47,0,0,1,.46.46A.46.46,0,0,1,132.28,160Z" fill="#d1d3d4"></path><rect x="190.55" y="147.37" width="12.88" height="17.67" fill="#fff"></rect><path d="M203.43,165.51H190.55a.47.47,0,0,1-.47-.46V147.37a.47.47,0,0,1,.47-.46h12.88a.47.47,0,0,1,.46.46v17.68A.47.47,0,0,1,203.43,165.51ZM191,164.59h12V147.83H191Z" fill="#d1d3d4"></path><path d="M197,165.51a.46.46,0,0,1-.46-.46V147.37a.46.46,0,0,1,.46-.46.47.47,0,0,1,.46.46v17.68A.47.47,0,0,1,197,165.51Z" fill="#d1d3d4"></path><path d="M203.43,153.35H190.55a.47.47,0,0,1-.47-.46.46.46,0,0,1,.47-.46h12.88a.46.46,0,0,1,.46.46A.47.47,0,0,1,203.43,153.35Z" fill="#d1d3d4"></path><path d="M203.43,160H190.55a.46.46,0,0,1-.47-.46.47.47,0,0,1,.47-.46h12.88a.47.47,0,0,1,.46.46A.46.46,0,0,1,203.43,160Z" fill="#d1d3d4"></path><rect x="214.26" y="147.37" width="12.88" height="17.67" fill="#fff"></rect><path d="M227.15,165.51H214.26a.47.47,0,0,1-.46-.46V147.37a.47.47,0,0,1,.46-.46h12.89a.47.47,0,0,1,.46.46v17.68A.47.47,0,0,1,227.15,165.51Zm-12.43-.92h12V147.83h-12Z" fill="#d1d3d4"></path><path d="M220.71,165.51a.47.47,0,0,1-.47-.46V147.37a.47.47,0,0,1,.93,0v17.68A.47.47,0,0,1,220.71,165.51Z" fill="#d1d3d4"></path><path d="M227.15,153.35H214.26a.47.47,0,0,1-.46-.46.46.46,0,0,1,.46-.46h12.89a.46.46,0,0,1,.46.46A.47.47,0,0,1,227.15,153.35Z" fill="#d1d3d4"></path><path d="M227.15,160H214.26a.46.46,0,0,1-.46-.46.47.47,0,0,1,.46-.46h12.89a.47.47,0,0,1,.46.46A.46.46,0,0,1,227.15,160Z" fill="#d1d3d4"></path><path d="M162.93,46.66a.45.45,0,0,1-.46-.46V30.68a.45.45,0,0,1,.46-.46.46.46,0,0,1,.46.46V46.2A.46.46,0,0,1,162.93,46.66Z" fill="#d1d3d4"></path><path d="M155.18,45.08a7.31,7.31,0,0,1-2.92-.6,13.56,13.56,0,0,1-2.16-1.26c-.36-.24-.72-.48-1.09-.71a12.15,12.15,0,0,0-12.59.35.46.46,0,0,1-.6-.07.47.47,0,0,1,0-.6c3-3.69,6.14-5.87,9.44-6.5a22.09,22.09,0,0,1,5-.16,23,23,0,0,0,4.23-.05,11.6,11.6,0,0,0,8.07-5.06.47.47,0,0,1,.64-.13.47.47,0,0,1,.13.64,12.57,12.57,0,0,1-8.72,5.47,24.79,24.79,0,0,1-4.39.05,21.16,21.16,0,0,0-4.79.14,14,14,0,0,0-7.24,4.31,12.94,12.94,0,0,1,11.31.82c.39.23.76.48,1.13.73a12.71,12.71,0,0,0,2,1.19c3.37,1.46,7.31-.38,9.73-2.84a.46.46,0,0,1,.65,0,.45.45,0,0,1,0,.65A11.58,11.58,0,0,1,155.18,45.08Z" fill="#d1d3d4"></path><polyline points="161.41 74.22 161.41 81.13 157.58 79.61" fill="#fff"></polyline><path d="M161.41,81.59a.47.47,0,0,1-.17,0L157.41,80a.45.45,0,0,1-.26-.59.45.45,0,0,1,.6-.26l3.2,1.27V74.22a.46.46,0,1,1,.92,0v6.91a.47.47,0,0,1-.2.38A.42.42,0,0,1,161.41,81.59Z" fill="#d1d3d4"></path><path d="M147.39,139.31A.91.91,0,0,0,147,139a1.45,1.45,0,0,0-.52-.1l-.29,0a1.36,1.36,0,0,0-.28.11.53.53,0,0,0-.21.18.48.48,0,0,0-.09.29.47.47,0,0,0,.2.4,1.66,1.66,0,0,0,.5.24c.21.07.42.14.66.2a2.9,2.9,0,0,1,.65.28,1.67,1.67,0,0,1,.5.49,1.53,1.53,0,0,1,.2.82,1.91,1.91,0,0,1-.18.86,2,2,0,0,1-.5.61,2.19,2.19,0,0,1-.72.35,3.21,3.21,0,0,1-1.93-.06,2.58,2.58,0,0,1-.91-.56l.92-1a1.43,1.43,0,0,0,.5.41,1.52,1.52,0,0,0,.63.14l.32,0a1.26,1.26,0,0,0,.29-.12.76.76,0,0,0,.21-.19.47.47,0,0,0,.07-.27.48.48,0,0,0-.2-.42,1.73,1.73,0,0,0-.51-.26l-.66-.22a2.67,2.67,0,0,1-.67-.29,1.66,1.66,0,0,1-.51-.48,1.42,1.42,0,0,1-.2-.79,1.72,1.72,0,0,1,.19-.83,1.86,1.86,0,0,1,.49-.59,2.21,2.21,0,0,1,.72-.36,2.94,2.94,0,0,1,.84-.12,3.1,3.1,0,0,1,1,.14,2.19,2.19,0,0,1,.84.47Z" fill="#d1d3d4"></path><path d="M153.09,139.4a1.26,1.26,0,0,0-.47-.35,1.44,1.44,0,0,0-.64-.13,1.72,1.72,0,0,0-.68.14,1.9,1.9,0,0,0-.54.4,1.7,1.7,0,0,0-.35.6,2.26,2.26,0,0,0,0,1.51,1.79,1.79,0,0,0,.35.6,1.46,1.46,0,0,0,.53.39,1.6,1.6,0,0,0,1.35,0,1.35,1.35,0,0,0,.51-.47l1.08.81a2.29,2.29,0,0,1-.95.77,3,3,0,0,1-1.18.25,3.49,3.49,0,0,1-1.27-.22,2.86,2.86,0,0,1-1-.62,2.78,2.78,0,0,1-.66-1,3.28,3.28,0,0,1-.23-1.28,3.31,3.31,0,0,1,.23-1.28,2.88,2.88,0,0,1,.66-1,3,3,0,0,1,1-.62,3.72,3.72,0,0,1,1.27-.21,3.12,3.12,0,0,1,.52,0,2.46,2.46,0,0,1,.53.15,2,2,0,0,1,.5.26,2.12,2.12,0,0,1,.44.41Z" fill="#d1d3d4"></path><path d="M154.93,137.88h1.3v2.19h2.51v-2.19H160v5.87h-1.29v-2.54h-2.51v2.54h-1.3Z" fill="#d1d3d4"></path><path d="M160.91,140.81a3.32,3.32,0,0,1,.24-1.28,2.88,2.88,0,0,1,.66-1,3,3,0,0,1,1-.62,3.95,3.95,0,0,1,2.54,0,2.91,2.91,0,0,1,1,.62,2.62,2.62,0,0,1,.66,1,3.32,3.32,0,0,1,.24,1.28,3.28,3.28,0,0,1-.24,1.28,2.54,2.54,0,0,1-.66,1,2.77,2.77,0,0,1-1,.62,3.78,3.78,0,0,1-2.54,0,2.86,2.86,0,0,1-1-.62,2.78,2.78,0,0,1-.66-1A3.28,3.28,0,0,1,160.91,140.81Zm1.35,0a2.06,2.06,0,0,0,.13.76,1.61,1.61,0,0,0,.94,1,1.82,1.82,0,0,0,.75.14,1.79,1.79,0,0,0,.75-.14,1.56,1.56,0,0,0,.58-.39,1.84,1.84,0,0,0,.37-.6,2.26,2.26,0,0,0,0-1.51,1.74,1.74,0,0,0-.37-.6,1.72,1.72,0,0,0-.58-.4,2,2,0,0,0-.75-.14,2,2,0,0,0-.75.14,1.82,1.82,0,0,0-.58.4,1.58,1.58,0,0,0-.36.6A2,2,0,0,0,162.26,140.81Z" fill="#d1d3d4"></path><path d="M167.81,140.81a3.32,3.32,0,0,1,.24-1.28,2.88,2.88,0,0,1,.66-1,3,3,0,0,1,1-.62,3.95,3.95,0,0,1,2.54,0,3.06,3.06,0,0,1,1,.62,2.72,2.72,0,0,1,.65,1,3.32,3.32,0,0,1,.24,1.28,3.28,3.28,0,0,1-.24,1.28,2.63,2.63,0,0,1-.65,1,2.9,2.9,0,0,1-1,.62,3.78,3.78,0,0,1-2.54,0,2.86,2.86,0,0,1-1-.62,2.78,2.78,0,0,1-.66-1A3.28,3.28,0,0,1,167.81,140.81Zm1.35,0a2.06,2.06,0,0,0,.13.76,1.55,1.55,0,0,0,.37.6,1.61,1.61,0,0,0,.57.39,1.86,1.86,0,0,0,.75.14,1.79,1.79,0,0,0,.75-.14,1.56,1.56,0,0,0,.58-.39,1.84,1.84,0,0,0,.37-.6,2.26,2.26,0,0,0,0-1.51,1.74,1.74,0,0,0-.37-.6,1.72,1.72,0,0,0-.58-.4,2,2,0,0,0-.75-.14,2,2,0,0,0-.75.14,1.78,1.78,0,0,0-.57.4,1.48,1.48,0,0,0-.37.6A2,2,0,0,0,169.16,140.81Z" fill="#d1d3d4"></path><path d="M175.08,137.88h1.29v4.67h2.4v1.2h-3.69Z" fill="#d1d3d4"></path><path d="M219.14,189.11a28.33,28.33,0,0,1,3.21-8.1c1.75-2.7,4.57-4.92,7.79-5.11s6.63,2.18,6.85,5.4a5.18,5.18,0,1,1,9.82,3.3c1.76-2.23,5.32-2.39,7.73-.88a10,10,0,0,1,3.91,5.39Z" fill="#fff"></path><path d="M258.45,189.57H219.14a.46.46,0,0,1-.44-.58,28.58,28.58,0,0,1,3.26-8.23c2-3.15,5.09-5.14,8.15-5.32a7.18,7.18,0,0,1,7,4.4,5.79,5.79,0,0,1,2.23-2,5.37,5.37,0,0,1,7.6,2.55,5.94,5.94,0,0,1,.57,2.9,6.85,6.85,0,0,1,7.22.05,10.35,10.35,0,0,1,4.1,5.63.45.45,0,0,1-.06.42A.44.44,0,0,1,258.45,189.57Zm-38.7-.92h38a9.29,9.29,0,0,0-3.5-4.54c-2.1-1.31-5.46-1.32-7.12.78a.47.47,0,0,1-.59.11.44.44,0,0,1-.2-.56,4.81,4.81,0,0,0-.22-3.67,4.72,4.72,0,0,0-8.73.65.46.46,0,0,1-.9-.09c-.21-3.05-3.55-5.16-6.36-5s-5.56,2-7.44,4.9A26.6,26.6,0,0,0,219.75,188.65Z" fill="#d1d3d4"></path><path d="M99.17,189.11A28.6,28.6,0,0,0,96,181c-1.76-2.7-4.58-4.92-7.8-5.11s-6.63,2.18-6.85,5.4a5.18,5.18,0,1,0-9.81,3.3c-1.77-2.23-5.33-2.39-7.74-.88a10,10,0,0,0-3.9,5.39Z" fill="#fff"></path><path d="M99.17,189.57H59.87a.47.47,0,0,1-.38-.19.45.45,0,0,1-.06-.42,10.44,10.44,0,0,1,4.1-5.63,6.88,6.88,0,0,1,7.22-.06,5.92,5.92,0,0,1,.57-2.89,5.67,5.67,0,0,1,3.23-3,5.61,5.61,0,0,1,4.37.43,5.79,5.79,0,0,1,2.23,2,7.19,7.19,0,0,1,7-4.4c3.07.18,6.11,2.17,8.15,5.32A28.58,28.58,0,0,1,99.61,189a.47.47,0,0,1-.07.4A.46.46,0,0,1,99.17,189.57Zm-38.65-.92h38a26.62,26.62,0,0,0-3-7.39c-1.88-2.9-4.66-4.74-7.44-4.9s-6.15,1.92-6.36,5a.46.46,0,0,1-.9.09,4.93,4.93,0,0,0-6-3.14,4.66,4.66,0,0,0-2.68,2.49,4.72,4.72,0,0,0-.22,3.67.46.46,0,0,1-.21.56.48.48,0,0,1-.59-.11c-1.65-2.1-5-2.09-7.12-.78A9.29,9.29,0,0,0,60.52,188.65Z" fill="#d1d3d4"></path><path d="M287.05,95.63a279.4,279.4,0,0,1-12,60.54c-1.74,5.52-3.67,11.29-2.51,17a2.63,2.63,0,0,0,.63,1.42c1.32,1.26,3.24-.71,4-2.38,6.61-15.13,13.16-30.47,16-46.73,1.35-7.77,1.65-16.41-2.9-22.85" fill="#fff"></path><path d="M274.14,175.47a1.87,1.87,0,0,1-1.31-.55,3,3,0,0,1-.78-1.69c-1.15-5.6.63-11.21,2.35-16.63l.18-.58a279.2,279.2,0,0,0,12-60.44.5.5,0,0,1,.56-.47.53.53,0,0,1,.47.56,281.1,281.1,0,0,1-12,60.66l-.19.58c-1.67,5.3-3.41,10.78-2.32,16.11a2.13,2.13,0,0,0,.49,1.15.78.78,0,0,0,.78.24,4.34,4.34,0,0,0,2.36-2.45c6.11-14,13-29.87,15.95-46.61,1.76-10.12.87-17.26-2.81-22.47a.52.52,0,0,1,.12-.72.51.51,0,0,1,.72.13c3.85,5.45,4.8,12.83,3,23.24-2.93,16.86-9.89,32.79-16,46.84-.58,1.33-1.83,2.8-3.11,3.06A2.58,2.58,0,0,1,274.14,175.47Z" fill="#231f20"></path><path d="M293.58,235.58a37,37,0,0,1,2,6.32c.11,1.11-4.84,2.56-4.49,2.59s1.17,8.8,4.16,9.4,11.27-6.17,12.54-8-6.22-14.55-6.22-14.55Z" fill="#fff"></path><path d="M295.59,254.44a2.63,2.63,0,0,1-.49,0c-2.55-.52-3.6-5.61-4.17-8.35-.1-.47-.21-1-.27-1.21a.5.5,0,0,1-.14-.28c-.07-.44.18-.54,1-.85,2.74-1,3.41-1.55,3.5-1.8a39,39,0,0,0-1.88-6,.62.62,0,0,1-.07-.42.54.54,0,0,1,.26-.33l8-4.21a.51.51,0,0,1,.68.19c1.8,3.06,7.55,13.18,6.2,15.1C307,247.88,299.23,254.44,295.59,254.44Zm-3.89-9.69c.07.27.14.62.24,1.09.44,2.15,1.48,7.17,3.37,7.55,2.7.54,10.76-6,12-7.77.64-.93-2.57-7.67-6-13.56l-7.08,3.75a40.36,40.36,0,0,1,1.8,6c.11,1-1.38,1.77-4.16,2.83Z" fill="#231f20"></path><path d="M298.65,251.08a27.61,27.61,0,0,1-7.09-7.81s-7.24,3.86-8.58,4.73c-5.69,3.72-9.09,9-7.24,9.44s18.73-.92,23-1.9S298.65,251.08,298.65,251.08Z" fill="#231f20"></path><path d="M277.13,258a8.47,8.47,0,0,1-1.5-.08,1.09,1.09,0,0,1-.89-.91c-.33-1.79,3-6.22,8-9.46,1.34-.87,8.33-4.6,8.62-4.76a.51.51,0,0,1,.68.18,27.34,27.34,0,0,0,6.93,7.66l0,0c.25.2,2.45,2,2.08,3.68-.19.82-.94,1.38-2.23,1.68C295.31,256.86,281.89,258,277.13,258ZM291.39,244c-1.57.83-7,3.76-8.12,4.49-4.94,3.22-7.71,7.33-7.51,8.4,0,.07,0,.08.09.09,1.69.37,18.5-.91,22.74-1.89.6-.14,1.34-.41,1.45-.91.18-.8-1.05-2.11-1.7-2.63A27.94,27.94,0,0,1,291.39,244Z" fill="#231f20"></path><path d="M284.83,48.1a12,12,0,0,1,4.24-4.43,9.79,9.79,0,0,1,10.68.43,4.15,4.15,0,0,1,3.42-1.34c4.33.19,7.43,3.91,9.43,7.41,2.29,4,3,8.62,5,12.76.33.7,6.44,8.49,7.66,6.95-1.68,2.12-3.43,4.19-5.24,6.19a21.59,21.59,0,0,1-5.56,4.76,19.72,19.72,0,0,1-8,1.91,61.33,61.33,0,0,1-28.13-4.68,120.61,120.61,0,0,1,3.21-19.52C282.44,54.86,283.09,51.15,284.83,48.1Z" fill="#fff"></path><path d="M302.15,83.39a61.85,61.85,0,0,1-24-4.87.5.5,0,0,1-.3-.5A122.89,122.89,0,0,1,281,58.42c.17-.66.32-1.32.48-2a31.94,31.94,0,0,1,2.88-8.59h0a12.62,12.62,0,0,1,4.42-4.61,10.27,10.27,0,0,1,10.87.2,4.83,4.83,0,0,1,3.51-1.18c3.72.16,7,2.74,9.84,7.67a37.79,37.79,0,0,1,2.91,7.18,47.15,47.15,0,0,0,2.09,5.6c.54,1.08,5.84,7.33,6.81,6.86a.52.52,0,0,1,.71-.08.5.5,0,0,1,.08.7c-1.67,2.12-3.45,4.21-5.26,6.22a22.11,22.11,0,0,1-5.69,4.86,20.52,20.52,0,0,1-8.21,2C305,83.34,303.59,83.39,302.15,83.39Zm-23.32-5.65a60.81,60.81,0,0,0,27.57,4.5,19.64,19.64,0,0,0,7.81-1.85,20.88,20.88,0,0,0,5.41-4.66c1.56-1.71,3.08-3.49,4.54-5.3-2.41-1-6.81-6.82-7-7.29A47.68,47.68,0,0,1,315,57.42a37.41,37.41,0,0,0-2.82-7c-2.64-4.6-5.67-7-9-7.16a3.57,3.57,0,0,0-3,1.16.51.51,0,0,1-.68.09,9.25,9.25,0,0,0-10.13-.42,11.73,11.73,0,0,0-4.07,4.26h0a31.31,31.31,0,0,0-2.78,8.32c-.15.66-.31,1.33-.48,2A122.14,122.14,0,0,0,278.83,77.74Z" fill="#231f20"></path><path d="M305.1,237.39s.8,8.53,0,9.63-5.07,2.61-5.07,2.61,2.3,4.81,6.8,4.21,9.9-3.81,9.9-3.81l.92-14.95Z" fill="#fff"></path><path d="M306,254.41c-4.24,0-6.38-4.36-6.48-4.56a.55.55,0,0,1,0-.42.52.52,0,0,1,.31-.29c1.59-.56,4.3-1.72,4.82-2.43s.28-5.28-.1-9.27a.52.52,0,0,1,.43-.56l12.55-2.3a.51.51,0,0,1,.44.12.54.54,0,0,1,.17.42l-.92,14.94a.5.5,0,0,1-.26.41c-.22.14-5.55,3.27-10.1,3.88A6.18,6.18,0,0,1,306,254.41Zm-5.27-4.5c.7,1.15,2.71,3.87,6,3.42,3.81-.51,8.4-3,9.47-3.61l.87-14-11.44,2.1c.22,2.46.65,8.42-.14,9.51S302,249.43,300.77,249.91Z" fill="#231f20"></path><path d="M303,251.53l-3.57-5s-17.17,9-16.48,12,35.94.7,35.94.4-.69-10.11-.69-10.11S307.06,253.84,303,251.53Z" fill="#231f20"></path><path d="M295.08,260.6c-12.16,0-12.45-1.28-12.6-1.93-.72-3.15,12.63-10.45,16.74-12.61a.52.52,0,0,1,.66.16l3.5,4.92c3.19,1.67,11.63-1.41,14.64-2.76a.54.54,0,0,1,.48,0,.52.52,0,0,1,.24.41c.12,1.64.7,9.83.7,10.14,0,.49-.44.54-1.05.61-2.3.26-10.93.83-19.21,1C297.69,260.59,296.32,260.6,295.08,260.6Zm4.22-13.42c-8,4.23-16.18,9.67-15.81,11.26,1.14,2,30.29.91,34.89.11-.08-1.33-.38-5.63-.61-8.94-2.53,1.06-11.34,4.47-15,2.37a.61.61,0,0,1-.17-.15Z" fill="#231f20"></path><path d="M321.33,86.13s18,17.14,19.42,22-2.42,4.06-2.42,4.06,10.71,20.47,4.14,32.2-23.49,4.06-24.18,1.81-.18-47.1.86-52.82S321.33,86.13,321.33,86.13Z" fill="#231f20"></path><path d="M331.05,151.23a21.51,21.51,0,0,1-2.17-.12c-5.49-.59-10.63-3.32-11.09-4.8-.82-2.69-.1-47.81.85-53.06,1.05-5.77,2.23-7.37,2.28-7.44a.53.53,0,0,1,.37-.2.55.55,0,0,1,.39.14c.74.71,18.16,17.3,19.56,22.2.53,1.82.41,3.15-.34,4a2.6,2.6,0,0,1-1.73.78,69.93,69.93,0,0,1,4.19,11c2.5,8.87,2.36,15.9-.44,20.89C340,149.88,335.17,151.23,331.05,151.23ZM321.46,87a26.86,26.86,0,0,0-1.8,6.48c-1.07,5.89-1.47,50.65-.88,52.57.24.79,4.58,3.47,10.21,4.07,4.17.45,9.82-.23,13-6,6.36-11.36-4-31.51-4.15-31.71a.52.52,0,0,1,.05-.55.49.49,0,0,1,.51-.19,2.1,2.1,0,0,0,1.71-.43c.48-.53.52-1.56.11-3C339.05,104,324.33,89.73,321.46,87Z" fill="#231f20"></path><path d="M286.5,127.5s-17.45,60.64-17.45,69.06S292.93,238,292.93,238l11.23-4.44s-13.69-32.2-12.65-34.61,10.33-27.77,10.33-27.77,1.49,32.59,2.32,37.4,0,30.39,0,30.39,12.57,3.62,16,0c0,0,5.43-92.38,1.85-103.21s-3.41-8.13-3.41-8.13Z" fill="#231f20"></path><path d="M314.44,241.11A43.8,43.8,0,0,1,304,239.49a.51.51,0,0,1-.38-.51c0-.07.06-1.92.13-4.69l-10.65,4.21a.52.52,0,0,1-.61-.18c-1-1.35-24-33.26-24-41.76s16.76-66.73,17.47-69.2a.51.51,0,0,1,.5-.38h0l31.72.15a.61.61,0,0,1,.39-.29c.56-.11,1-.18,3.92,8.77,3.57,10.81-1.61,99.64-1.83,103.42a.49.49,0,0,1-.14.32C319.29,240.67,317,241.11,314.44,241.11Zm-9.75-2.5c3.63,1,12.27,2.65,15,.16.28-4.81,5.3-92.46,1.87-102.83a68,68,0,0,0-2.86-7.78h-.06L286.88,128c-1.46,5.12-17.32,60.63-17.32,68.54,0,7.73,21.08,37.38,23.56,40.83l10.36-4.1c-2.71-6.37-13.49-32.11-12.45-34.52s10.23-27.49,10.32-27.75a.52.52,0,0,1,.57-.33.51.51,0,0,1,.43.49c0,.32,1.51,32.61,2.32,37.33C305.44,213.05,304.79,235.2,304.69,238.61Zm-3.25-64.83c-2.35,6.41-8.61,23.42-9.46,25.39-.58,1.72,6.66,20,11.86,32.33.18-7.93.33-19.75-.19-22.81C303,204.64,301.82,181.6,301.44,173.78Z" fill="#231f20"></path><path d="M288.14,86.83a26.35,26.35,0,0,0-3,7.76,21.42,21.42,0,0,0-.64,7.13c.48,4.55,3,8.54,6,11.85a64.22,64.22,0,0,1-1.31-9.67,31.56,31.56,0,0,1,2.42-13.08A30,30,0,0,1,294.74,85c.59-.83,1.59-1.57.69-2.47a2.49,2.49,0,0,0-2.33-.68C291.09,82.46,289.23,85.07,288.14,86.83Z" fill="#231f20"></path><path d="M290.46,114.09a.52.52,0,0,1-.38-.17c-3.69-4.16-5.7-8.13-6.12-12.15a21.44,21.44,0,0,1,.65-7.3,26.55,26.55,0,0,1,3.09-7.91h0c1.83-3,3.6-4.7,5.26-5.17a3,3,0,0,1,2.84.81c1.05,1.06.24,2-.29,2.69l-.35.45A29.17,29.17,0,0,0,292,91a31.12,31.12,0,0,0-2.37,12.86,62.79,62.79,0,0,0,1.3,9.6.53.53,0,0,1-.28.56A.59.59,0,0,1,290.46,114.09Zm-1.88-27a25.56,25.56,0,0,0-3,7.61,20.4,20.4,0,0,0-.62,7c.35,3.33,1.86,6.64,4.61,10.09a52.35,52.35,0,0,1-1-7.83,32.23,32.23,0,0,1,2.45-13.3,30.61,30.61,0,0,1,3.23-5.87c.12-.18.26-.35.39-.51.65-.78.69-1,.35-1.31a2,2,0,0,0-1.82-.55c-1.38.4-3,2-4.66,4.72Z" fill="#231f20"></path><path d="M291.16,85.82c-.47.54-3.45,3.31-4.66,12s3.11,18.35,0,29.64l29.75,1.65s9.06-36.61,4.51-44.33S296.69,79.5,291.16,85.82Z" fill="#7209b7"></path><path d="M315.32,116.66S302,111.24,303.11,99.18c1.23-13.05,6.84-16.26,11.66-18.86,2.82,1,3.2,1.79,3.2,1.79s-10,3-10.16,10.4S305.88,110,315.32,116.66Z" fill="#231f20"></path><path d="M315.32,117.17a.43.43,0,0,1-.19,0c-.14,0-13.7-5.7-12.54-18,1.28-13.53,7.19-16.71,11.93-19.26a.51.51,0,0,1,.42,0c2.8,1,3.38,1.82,3.49,2a.52.52,0,0,1,0,.44.53.53,0,0,1-.33.29c-.1,0-9.6,3-9.79,9.92,0,.84-.06,1.72-.11,2.63-.33,6.85-.74,15.37,7.4,21.07a.52.52,0,0,1-.3.94Zm-.52-36.28c-4.49,2.42-10,5.56-11.18,18.33-.68,7.23,4.11,12,7.82,14.63-4.88-5.7-4.53-12.82-4.25-18.74,0-.9.09-1.77.11-2.61.17-6.46,7.16-9.65,9.66-10.59A12.12,12.12,0,0,0,314.8,80.89Z" fill="#231f20"></path><path d="M308.61,105.53c.52.75.35,16.1,0,16.7-2.28,4-4.46,8-6.73,12-1.62,2.82-3.25,5.64-4.95,8.41-3,4.87-8.08,7.86-11.76,12.22a6.42,6.42,0,0,0,4.86-.73l-4.81,7c-.94,1.37-1.93,3-1.46,4.59.41,1.36,7.12-2.63,7.89-3.39,3-3,4.64-7.29,7.49-10.45,2.35-2.6,5-4.93,7.34-7.66,4.12-4.86,9.83-10.43,12.15-16.5,2.08-5.42,4.15-25.58,4.15-25.58" fill="#fff"></path><path d="M284.26,166.44a1.15,1.15,0,0,1-.33,0,.86.86,0,0,1-.66-.6c-.54-1.81.5-3.55,1.52-5l3.8-5.5a6.79,6.79,0,0,1-3.55,0,.53.53,0,0,1-.36-.35.5.5,0,0,1,.1-.49,50.55,50.55,0,0,1,5.07-5,33.11,33.11,0,0,0,6.64-7.18c1.7-2.77,3.31-5.55,4.94-8.4q1.69-3,3.34-5.93c1.12-2,2.25-4,3.39-6,.27-.93.45-15,0-16.21a.49.49,0,0,1,.14-.69.55.55,0,0,1,.74.16c.72,1.05.38,16.63,0,17.25-1.15,2-2.27,4-3.39,6s-2.21,4-3.35,5.95c-1.63,2.85-3.24,5.64-4.95,8.43a34.44,34.44,0,0,1-6.84,7.4,59.42,59.42,0,0,0-4.37,4.19,5.89,5.89,0,0,0,3.6-.82.51.51,0,0,1,.69.73l-4.81,7c-.86,1.26-1.76,2.71-1.41,4.06,1,.18,6.24-2.72,7-3.53a29.36,29.36,0,0,0,3.94-5.4,34.35,34.35,0,0,1,3.53-5c1.05-1.16,2.18-2.28,3.26-3.36,1.38-1.37,2.8-2.78,4.08-4.29.83-1,1.72-2,2.63-3,3.57-4,7.61-8.58,9.43-13.34,2-5.3,4.09-25.25,4.11-25.45a.52.52,0,0,1,.57-.46.51.51,0,0,1,.46.56c-.08.83-2.1,20.3-4.18,25.71-1.89,4.94-6,9.57-9.62,13.66-.91,1-1.79,2-2.61,3-1.31,1.54-2.75,3-4.14,4.35-1.08,1.07-2.19,2.18-3.22,3.32a34.69,34.69,0,0,0-3.43,4.88,29.18,29.18,0,0,1-4.08,5.58C291.4,163.23,286.29,166.44,284.26,166.44Z" fill="#231f20"></path><path d="M320.76,84.82s-8.75-3-12.21,5.61S306,108.89,306,108.89l20,1S329.06,88,320.76,84.82Z" fill="#7209b7"></path><path d="M294.68,75.09l.13,8.81s.64,4.76,6.46,3.28,6.54-5.67,6.54-5.67L307.55,65s-4.74-2.8-5.73-13.09c0,0-3.93,4.7-12.63,3.7,0,0-1.61,8.81-1,13.35S294.6,75,294.68,75.09Z" fill="#fff"></path><path d="M299.18,88a5,5,0,0,1-2.87-.81,5,5,0,0,1-2-3.19l-.13-8.53c-2.29-.84-6-2.73-6.47-6.39-.63-4.57.92-13.14,1-13.51a.5.5,0,0,1,.55-.4c8.3,1,12.15-3.49,12.19-3.53a.49.49,0,0,1,.53-.16.51.51,0,0,1,.35.43c.95,9.86,5.44,12.69,5.49,12.71a.5.5,0,0,1,.24.43l.26,16.48c0,.28-.84,4.62-6.91,6.17A9.13,9.13,0,0,1,299.18,88Zm-3.87-4.08a4,4,0,0,0,1.57,2.45,5.26,5.26,0,0,0,4.27.36c5.41-1.38,6.14-5.12,6.17-5.27l-.26-16.14c-1-.71-4.56-3.85-5.62-12.29-1.52,1.31-5.34,3.79-11.83,3.18-.32,1.85-1.44,8.91-.91,12.73.44,3.24,3.95,4.93,6,5.65a.79.79,0,0,1,.28.14.47.47,0,0,1,.19.38l.13,8.81Zm0,0h0Z" fill="#231f20"></path><path d="M304.12,64.78a3.84,3.84,0,0,1,1.27-2.06,6.7,6.7,0,0,1,2-1,2.76,2.76,0,0,1,1.23-.24,2.29,2.29,0,0,1,.83.29,2.94,2.94,0,0,1,1.43,1.46,3.49,3.49,0,0,1,.1,1.67,7.31,7.31,0,0,1-.43,1.79,4.64,4.64,0,0,1-6.1,2.48" fill="#fff"></path><path d="M306.31,70a5,5,0,0,1-2-.41.5.5,0,0,1,.39-.92,4.12,4.12,0,0,0,5.44-2.21,6.41,6.41,0,0,0,.4-1.66,3.11,3.11,0,0,0-.07-1.43,2.52,2.52,0,0,0-1.19-1.2,1.86,1.86,0,0,0-.66-.23,2.25,2.25,0,0,0-1,.21,6.4,6.4,0,0,0-1.89,1,3.27,3.27,0,0,0-1.1,1.78.49.49,0,0,1-.6.37.5.5,0,0,1-.38-.6,4.4,4.4,0,0,1,1.44-2.32,7.08,7.08,0,0,1,2.19-1.14,3.21,3.21,0,0,1,1.45-.27,3.1,3.1,0,0,1,1,.35A3.45,3.45,0,0,1,311.39,63a3.86,3.86,0,0,1,.12,1.9,7.41,7.41,0,0,1-.46,1.92,5.16,5.16,0,0,1-2.81,2.79A5.1,5.1,0,0,1,306.31,70Z" fill="#231f20"></path><path d="M296.61,61.14s-3.17,4.5-2.46,5.31,2.76.34,2.76.34" fill="#fff"></path><path d="M295.67,67.43a2.52,2.52,0,0,1-1.9-.65c-.79-.91.88-3.73,2.43-5.92a.5.5,0,1,1,.82.57c-1.45,2.06-2.6,4.28-2.47,4.74.33.35,1.54.29,2.24.13a.5.5,0,1,1,.23,1A6.05,6.05,0,0,1,295.67,67.43Z" fill="#231f20"></path><ellipse cx="300.58" cy="60.55" rx="1.07" ry="0.76" transform="translate(221.17 356.7) rotate(-86.38)" fill="#231f20"></ellipse><ellipse cx="293.36" cy="60.81" rx="1.07" ry="0.76" transform="translate(212.12 349.19) rotate(-85.98)" fill="#231f20"></ellipse><path d="M296.83,71.54a10.7,10.7,0,0,1-5.16-1.63.5.5,0,1,1,.54-.84s3.42,2.17,6.17,1.22a5.1,5.1,0,0,0,3-3.52.5.5,0,0,1,.64-.32.5.5,0,0,1,.31.63,6,6,0,0,1-3.61,4.15A5.52,5.52,0,0,1,296.83,71.54Z" fill="#231f20"></path><path d="M294.68,75.09s4.22,1,7.48-.82c0,0-2.19,8.32-7.38,7.54Z" fill="#231f20"></path><path d="M295.47,82.37a5.19,5.19,0,0,1-.77-.06.5.5,0,0,1-.42-.49l-.1-6.73a.49.49,0,0,1,.19-.39.51.51,0,0,1,.43-.1s4.07,1,7.12-.76a.5.5,0,0,1,.55,0,.51.51,0,0,1,.18.53C302.56,74.74,300.49,82.37,295.47,82.37Zm-.2-1h.17c3.26,0,5.16-4.13,5.89-6.14a12.28,12.28,0,0,1-6.14.48Z" fill="#231f20"></path><path d="M338.33,112.65a.49.49,0,0,1-.41-.22c-.07-.09-6.64-9.67-10.79-13.58a.49.49,0,0,1,0-.7.5.5,0,0,1,.71,0c4.23,4,10.65,13.34,10.92,13.74a.5.5,0,0,1-.13.69A.49.49,0,0,1,338.33,112.65Z" fill="#fff"></path><path d="M323.28,146.39a.54.54,0,0,1-.49-.35,5.74,5.74,0,0,1-.09-1.24c-.08-3-.31-10.78-3.42-15.37a.49.49,0,1,1,.82-.55c3.28,4.83,3.51,12.87,3.6,15.89,0,.44,0,.88,0,1a.48.48,0,0,1-.3.61Z" fill="#fff"></path><path d="M301.84,171.7a.49.49,0,0,1-.49-.41L299,157.53a.5.5,0,0,1,1-.17l2.38,13.76a.5.5,0,0,1-.41.57Z" fill="#fff"></path><path d="M283,259.05a.3.3,0,0,1-.13,0,.5.5,0,0,1-.35-.61c1.11-3.83,14-12,14.51-12.32a.5.5,0,0,1,.54.84c-3.64,2.29-13.26,8.87-14.09,11.75A.49.49,0,0,1,283,259.05Z" fill="#fff"></path><path d="M171.79,269.78a.45.45,0,0,1-.41-.25L130,189.32a.46.46,0,1,1,.81-.42l41.41,80.21a.45.45,0,0,1-.2.62A.41.41,0,0,1,171.79,269.78Z" fill="#d1d3d4"></path><path d="M153,260.55a.47.47,0,0,1-.46-.42c-.63-6.39-2.63-11-5.94-13.82a10,10,0,0,0-7.83-2.14,7.09,7.09,0,0,0-5,3.19.46.46,0,0,1-.85-.25c.16-9.86-3.19-18.88-9.22-24.75-6.68-6.51-16.63-8.46-24.18-4.75-4.21,2.08-7.7,6.8-6.24,11.12a.45.45,0,0,1-.73.49c-5.47-4.67-12.45-6.36-18.21-4.41-6.46,2.18-10.68,9.28-9.21,15.51a.44.44,0,0,1-.14.45.47.47,0,0,1-.47.09,11.1,11.1,0,0,0-11.34,2.39A12.14,12.14,0,0,0,50,254.84a.47.47,0,0,1-.9.24,13.11,13.11,0,0,1,3.44-12.49,12.08,12.08,0,0,1,11.54-2.85c-1.06-6.47,3.34-13.57,10-15.81,5.7-1.92,12.51-.48,18,3.74-.6-4.39,2.88-8.84,7-10.88,7.89-3.88,18.27-1.86,25.23,4.91,5.93,5.77,9.35,14.47,9.5,24.05a8.2,8.2,0,0,1,4.8-2.48,10.93,10.93,0,0,1,8.57,2.34c3.5,2.93,5.61,7.79,6.27,14.43a.46.46,0,0,1-.41.5Z" fill="#d1d3d4"></path><path d="M82.46,238.4a.43.43,0,0,1-.19,0,.47.47,0,0,1-.23-.61c1.24-2.71,3.5-4.82,5.5-6.68a16,16,0,0,1,4.75-3.44,13.06,13.06,0,0,1,5.84-.63c6.88.53,12.25,3.63,14.36,8.3a.46.46,0,0,1-.23.61.47.47,0,0,1-.61-.23c-2-4.36-7.05-7.26-13.59-7.76a12.13,12.13,0,0,0-5.43.57,15.26,15.26,0,0,0-4.47,3.25c-1.93,1.81-4.12,3.85-5.28,6.39A.46.46,0,0,1,82.46,238.4Z" fill="#d1d3d4"></path><path d="M78,183.63a.47.47,0,0,1-.33-.14.45.45,0,0,1,0-.65,6.56,6.56,0,0,1,8.19-.63.46.46,0,1,1-.53.75,5.69,5.69,0,0,0-7,.54A.5.5,0,0,1,78,183.63Z" fill="#d1d3d4"></path><path d="M58.51,176.17a.47.47,0,0,1-.46-.42,5.23,5.23,0,0,1,1.23-3.66,9.72,9.72,0,0,1,2.94-2.33,10.41,10.41,0,0,1,3.35-1.29,5.6,5.6,0,0,1,3.64.52.44.44,0,0,1,.18.62.45.45,0,0,1-.62.19,4.68,4.68,0,0,0-3-.42,9.44,9.44,0,0,0-3,1.18A8.89,8.89,0,0,0,60,172.67a4.25,4.25,0,0,0-1,3,.46.46,0,0,1-.42.5Z" fill="#d1d3d4"></path><path d="M125.78,206.57h-.1a.46.46,0,0,1-.35-.55l1.07-4.89a.47.47,0,0,1,.55-.36.47.47,0,0,1,.35.55l-1.07,4.9A.47.47,0,0,1,125.78,206.57Z" fill="#d1d3d4"></path><path d="M123,207a.46.46,0,0,1-.45-.39l-.6-3.78a.46.46,0,1,1,.91-.14l.6,3.77a.46.46,0,0,1-.38.53Z" fill="#d1d3d4"></path><path d="M58,218a.67.67,0,0,1-.61-.45L56,214.56a.46.46,0,0,1,.22-.61.47.47,0,0,1,.62.22l1.26,2.71.15.05a.56.56,0,0,1,.25.59.6.6,0,0,1-.45.43Z" fill="#d1d3d4"></path><path d="M60.44,217a.47.47,0,0,1-.42-.27,4.59,4.59,0,0,1-.16-3.34.46.46,0,1,1,.87.29,3.73,3.73,0,0,0,.13,2.67.46.46,0,0,1-.23.61A.43.43,0,0,1,60.44,217Z" fill="#d1d3d4"></path><path d="M63.69,217.57a.47.47,0,0,1-.45-.37,10,10,0,0,1,0-3.85.46.46,0,0,1,.54-.36.46.46,0,0,1,.36.54,9.11,9.11,0,0,0,0,3.49.46.46,0,0,1-.37.54Z" fill="#d1d3d4"></path><path d="M87.38,201.81a.46.46,0,0,1-.44-.33,9.62,9.62,0,0,0-1.27-2.57.46.46,0,0,1,.75-.53,10.07,10.07,0,0,1,1.39,2.83.46.46,0,0,1-.3.58Z" fill="#d1d3d4"></path><path d="M89.74,201.21a.47.47,0,0,1-.45-.37,5.3,5.3,0,0,1,.13-2.65.45.45,0,0,1,.57-.3.46.46,0,0,1,.31.57,4.43,4.43,0,0,0-.11,2.2.44.44,0,0,1-.35.54Z" fill="#d1d3d4"></path><path d="M93.44,201.07h-.09a.46.46,0,0,1-.36-.54,15.91,15.91,0,0,1,1.33-3.92.44.44,0,0,1,.61-.21.45.45,0,0,1,.21.61,15.67,15.67,0,0,0-1.25,3.7A.45.45,0,0,1,93.44,201.07Z" fill="#d1d3d4"></path><path d="M42.52,198.13a.46.46,0,0,1-.39-.22l-1.53-2.55a.46.46,0,0,1,.16-.63.47.47,0,0,1,.64.16l1.52,2.55a.46.46,0,0,1-.16.63A.53.53,0,0,1,42.52,198.13Z" fill="#d1d3d4"></path><path d="M44.44,197.12a.46.46,0,0,1-.45-.34,12.3,12.3,0,0,1-.45-3.2.47.47,0,0,1,.46-.46h0a.47.47,0,0,1,.47.46,10.88,10.88,0,0,0,.41,2.95.46.46,0,0,1-.32.57Z" fill="#d1d3d4"></path><path d="M47.06,197.42a.48.48,0,0,1-.44-.32,4.1,4.1,0,0,1,.24-3.2.46.46,0,0,1,.62-.19.45.45,0,0,1,.2.62,3.21,3.21,0,0,0-.19,2.47.45.45,0,0,1-.28.59A.4.4,0,0,1,47.06,197.42Z" fill="#d1d3d4"></path><path d="M337,225.53a.6.6,0,0,1-.34-.11.87.87,0,0,1-.27-.8,3.69,3.69,0,0,0-.58-2.4.48.48,0,0,1,.14-.64.46.46,0,0,1,.64.13,4.66,4.66,0,0,1,.74,2.76h0a.57.57,0,0,1,.27.48.62.62,0,0,1-.35.51A.66.66,0,0,1,337,225.53Z" fill="#d1d3d4"></path><path d="M339.45,225.29a.46.46,0,0,1-.46-.45,8.34,8.34,0,0,1,.72-3.58.46.46,0,0,1,.61-.23.45.45,0,0,1,.23.61,7.54,7.54,0,0,0-.64,3.18.46.46,0,0,1-.45.47Z" fill="#d1d3d4"></path><path d="M342.72,226.27a.47.47,0,0,1-.46-.38,3.72,3.72,0,0,1,.86-3.1.45.45,0,0,1,.65,0,.46.46,0,0,1,0,.65,2.88,2.88,0,0,0-.64,2.34.45.45,0,0,1-.37.53Z" fill="#d1d3d4"></path><path d="M253.44,202.77a.46.46,0,0,1-.46-.43,11.1,11.1,0,0,0-.68-3.11.47.47,0,0,1,.27-.6.48.48,0,0,1,.6.28,12.08,12.08,0,0,1,.73,3.37.47.47,0,0,1-.43.49Z" fill="#d1d3d4"></path><path d="M255.6,203.05h0a.46.46,0,0,1-.46-.47,10.21,10.21,0,0,1,.73-3.71.46.46,0,1,1,.86.34,9.34,9.34,0,0,0-.67,3.38A.46.46,0,0,1,255.6,203.05Z" fill="#d1d3d4"></path><path d="M258.63,202.61a.47.47,0,0,1-.42-.27.46.46,0,0,1,.24-.61c.31-.14.44-.53.61-1.16a2.44,2.44,0,0,1,1.08-1.74.46.46,0,0,1,.62.2.47.47,0,0,1-.2.62c-.33.17-.47.65-.61,1.17a2.35,2.35,0,0,1-1.13,1.75A.41.41,0,0,1,258.63,202.61Z" fill="#d1d3d4"></path><path d="M333.44,203.73a.45.45,0,0,1-.4-.23l-1.74-3a.47.47,0,0,1,.16-.63.46.46,0,0,1,.63.17l1.74,3a.46.46,0,0,1-.16.63A.53.53,0,0,1,333.44,203.73Z" fill="#d1d3d4"></path><path d="M335.75,202.45a.47.47,0,0,1-.45-.38,7.61,7.61,0,0,1,.16-3.42,1.39,1.39,0,0,1,1-1,.72.72,0,0,1,.72.33.46.46,0,0,1-.64.63.67.67,0,0,0-.16.27,6.52,6.52,0,0,0-.14,3,.46.46,0,0,1-.37.53Z" fill="#d1d3d4"></path><path d="M338.48,202.63a.47.47,0,0,1-.46-.42,3.58,3.58,0,0,1,2.31-3.59.46.46,0,0,1,.59.28.47.47,0,0,1-.28.59,2.66,2.66,0,0,0-1.7,2.63.46.46,0,0,1-.42.5Z" fill="#d1d3d4"></path><path d="M229.49,198.83a.45.45,0,0,1-.41-.25,9.81,9.81,0,0,0-1.55-2.27.46.46,0,0,1,.68-.62,10.56,10.56,0,0,1,1.69,2.48.46.46,0,0,1-.21.61A.35.35,0,0,1,229.49,198.83Z" fill="#d1d3d4"></path><path d="M231.4,198.52a.48.48,0,0,1-.45-.34,5.33,5.33,0,0,1,.06-2.91.46.46,0,1,1,.87.27,4.45,4.45,0,0,0,0,2.4.46.46,0,0,1-.32.56Z" fill="#d1d3d4"></path><path d="M234.09,198.87a.46.46,0,0,1-.41-.25,3.65,3.65,0,0,1,.21-2.94,1.57,1.57,0,0,1,.5-.74.89.89,0,0,1,.76-.11.74.74,0,0,1,.47.44.46.46,0,0,1-.27.59.44.44,0,0,1-.49-.11c0,.06-.08.19-.11.26a2.89,2.89,0,0,0-.24,2.19.47.47,0,0,1-.42.67Z" fill="#d1d3d4"></path><path d="M140.06,232.85h0a.45.45,0,0,1-.43-.48,7.24,7.24,0,0,0-.37-2.65.46.46,0,0,1,.3-.58.46.46,0,0,1,.58.29,8.15,8.15,0,0,1,.41,3A.47.47,0,0,1,140.06,232.85Z" fill="#d1d3d4"></path><path d="M141.76,231.91a.46.46,0,0,1-.46-.43,16.06,16.06,0,0,1,.06-3.1.46.46,0,0,1,.51-.4.45.45,0,0,1,.4.5,17,17,0,0,0-.05,2.94.47.47,0,0,1-.43.49Z" fill="#d1d3d4"></path><path d="M144.12,232.27l-.13,0a.46.46,0,0,1-.31-.57,18.11,18.11,0,0,1,1.23-3.06.46.46,0,1,1,.82.42,16.56,16.56,0,0,0-1.16,2.9A.47.47,0,0,1,144.12,232.27Z" fill="#d1d3d4"></path><path d="M59.91,182.53a.46.46,0,0,1-.46-.41,8.54,8.54,0,0,1,13.88-7.51.47.47,0,0,1,.06.65.45.45,0,0,1-.65.06A7.62,7.62,0,0,0,60.36,182a.46.46,0,0,1-.41.51Z" fill="#d1d3d4"></path></g></svg>