<svg xmlns="http://www.w3.org/2000/svg" viewBox="0 0 400 300" width="0" height="0" class="illustration styles_illustrationTablet__1DWOa"><g id="_342_teacher_flatline" data-name="#342_teacher_flatline"><rect x="159.76" y="58.09" width="192.64" height="143.63" fill="#fff"></rect><path d="M352.39,202.22H159.76a.5.5,0,0,1-.5-.5V58.09a.5.5,0,0,1,.5-.5H352.39a.5.5,0,0,1,.5.5V201.72A.5.5,0,0,1,352.39,202.22Zm-192.13-1H351.89V58.59H160.26Z" fill="#231f20"></path><path d="M249.22,141.22h-61.8a.5.5,0,0,1,0-1h61.8a.5.5,0,0,1,0,1Z" fill="#d1d3d4"></path><path d="M249.22,150h-61.8a.5.5,0,0,1,0-1h61.8a.5.5,0,0,1,0,1Z" fill="#d1d3d4"></path><path d="M249.22,158.72h-61.8a.5.5,0,0,1-.5-.5.5.5,0,0,1,.5-.5h61.8a.5.5,0,0,1,.5.5A.5.5,0,0,1,249.22,158.72Z" fill="#d1d3d4"></path><path d="M341,193.72H171.16a.5.5,0,0,1-.5-.5V66.59a.5.5,0,0,1,.5-.5H341a.5.5,0,0,1,.5.5V193.22A.5.5,0,0,1,341,193.72Zm-169.33-1H340.49V67.09H171.66Z" fill="#d1d3d4"></path><path d="M329.91,150H267.26a.49.49,0,0,1-.49-.5.52.52,0,0,1,.11-.32c.61-2.64.27-42.15-.11-68.37a.49.49,0,0,1,.32-.47.48.48,0,0,1,.55.13l62.64,68.69a.51.51,0,0,1,.08.54A.5.5,0,0,1,329.91,150Zm-62.07-1h60.93l-61-66.89C268.13,105.71,268.53,142.88,267.84,149Z" fill="#d1d3d4"></path><path d="M316.74,154.58a.5.5,0,0,1-.5-.48c0-.14-.43-13.53,11.09-16.1a.5.5,0,0,1,.22,1c-10.72,2.38-10.31,15-10.31,15.08a.51.51,0,0,1-.48.52Z" fill="#d1d3d4"></path><path d="M277.52,150a.5.5,0,0,1-.5-.5V142h-9.75a.51.51,0,0,1-.5-.5.5.5,0,0,1,.5-.5h10.25a.5.5,0,0,1,.5.5v8A.5.5,0,0,1,277.52,150Z" fill="#d1d3d4"></path><path d="M258.7,110.16v-.67a4.22,4.22,0,0,1,.06-.75,2.65,2.65,0,0,1,.2-.64,2.36,2.36,0,0,1,.35-.58,5.68,5.68,0,0,1,.55-.59l.79-.76a3.56,3.56,0,0,0,.57-.66,1.63,1.63,0,0,0,.24-.9,1.65,1.65,0,0,0-.43-1.15,1.59,1.59,0,0,0-1.22-.46,1.73,1.73,0,0,0-1.29.55,1.71,1.71,0,0,0-.36.59,2.29,2.29,0,0,0-.14.68l-2.16-.19a4.39,4.39,0,0,1,.45-1.5,3.59,3.59,0,0,1,.88-1.12,4,4,0,0,1,1.25-.69,4.64,4.64,0,0,1,1.51-.24,4.81,4.81,0,0,1,1.43.22,3.7,3.7,0,0,1,1.19.65,3.06,3.06,0,0,1,.82,1.06,3.4,3.4,0,0,1,.3,1.46,3.53,3.53,0,0,1-.13,1,3.05,3.05,0,0,1-.35.78,4.15,4.15,0,0,1-.55.67c-.22.22-.46.44-.73.68s-.42.37-.57.52a2.67,2.67,0,0,0-.35.46,1.45,1.45,0,0,0-.18.49,3,3,0,0,0-.06.65v.46Zm-.35,2.44a1.32,1.32,0,0,1,.41-1,1.38,1.38,0,0,1,1-.4,1.44,1.44,0,0,1,1,.38,1.25,1.25,0,0,1,.42,1,1.32,1.32,0,0,1-.41,1,1.37,1.37,0,0,1-1,.4,1.41,1.41,0,0,1-.54-.11,1.48,1.48,0,0,1-.45-.28,1.21,1.21,0,0,1-.31-.42A1.31,1.31,0,0,1,258.35,112.6Z" fill="#d1d3d4"></path><path d="M225.89,142.49c-2.62.33-12.73,7.74-15.35,8.23,0,0-4.48,4.49-9.86,9.24a90.93,90.93,0,0,1,7.09,15.56c4.66-5.15,8.77-10.31,10-11.76a42.78,42.78,0,0,1,3.33-4c1.83-1.73,4.25-2.93,6.3-4.39a17.35,17.35,0,0,0,5.55-5.79,5.07,5.07,0,0,0,.7-3.07C233.19,143.83,228.19,142.19,225.89,142.49Z" fill="#fff"></path><path d="M207.77,176h-.09a.5.5,0,0,1-.38-.32,90.44,90.44,0,0,0-7.05-15.48.49.49,0,0,1,.1-.62c5.3-4.68,9.79-9.18,9.83-9.22a.54.54,0,0,1,.27-.14c1.18-.22,4.24-2.1,7.2-3.93,3.45-2.12,6.72-4.12,8.17-4.31h0c2.49-.31,7.8,1.38,8.28,4.44a5.47,5.47,0,0,1-.75,3.39,18.11,18.11,0,0,1-5.7,6c-.74.52-1.53,1-2.29,1.49a26.09,26.09,0,0,0-4,2.85,21.83,21.83,0,0,0-2.23,2.62c-.35.46-.69.91-1,1.34l-.81,1c-1.71,2.1-5.27,6.47-9.16,10.79A.55.55,0,0,1,207.77,176Zm-6.45-16A92,92,0,0,1,208,174.56c3.65-4.09,6.94-8.13,8.56-10.12l.82-1c.35-.42.69-.86,1-1.31a23.42,23.42,0,0,1,2.33-2.74,26.7,26.7,0,0,1,4.12-3c.75-.47,1.53-1,2.24-1.46a17.29,17.29,0,0,0,5.4-5.62,4.52,4.52,0,0,0,.64-2.77c-.36-2.33-5.08-3.86-7.16-3.6h0c-1.24.16-4.71,2.29-7.77,4.18s-6,3.66-7.39,4C210.1,151.87,206.06,155.86,201.32,160.07Z" fill="#231f20"></path><polygon points="215.05 159.11 252.5 109.49 253.27 109.9 217.13 160.23 215.05 159.11" fill="#231f20"></polygon><path d="M217.13,160.73a.53.53,0,0,1-.24-.06l-2.08-1.12a.52.52,0,0,1-.25-.34.48.48,0,0,1,.09-.4l37.45-49.62a.49.49,0,0,1,.63-.14l.78.41a.49.49,0,0,1,.25.33.51.51,0,0,1-.08.4l-36.14,50.33A.49.49,0,0,1,217.13,160.73Zm-1.33-1.79,1.18.64,32.7-45.53Z" fill="#231f20"></path><path d="M209.7,151.5c2.77-3,5.66-7.59,7-9.37a3.65,3.65,0,0,1,1-1,3.43,3.43,0,0,1,1.58-.37,33.85,33.85,0,0,1,9.93.83,5,5,0,0,1,2.73,1.35,1.24,1.24,0,0,1,.36.81c0,.54-.51.93-1,1.19a13.38,13.38,0,0,1-5,1.23c-2.46.25-3.32-.28-5.79-.31.31,0,.94,2.57.32,4.22a12.69,12.69,0,0,1-3,4.16" fill="#fff"></path><path d="M217.87,154.78a.52.52,0,0,1-.35-.14.5.5,0,0,1,0-.71l.09-.09a11.75,11.75,0,0,0,2.79-3.89,6,6,0,0,0-.13-3.63.48.48,0,0,1-.22-.43.51.51,0,0,1,.5-.49,19.79,19.79,0,0,1,2.56.21,11.9,11.9,0,0,0,3.18.1,12.83,12.83,0,0,0,4.81-1.18c.22-.11.72-.41.72-.75a.85.85,0,0,0-.24-.48,4.61,4.61,0,0,0-2.47-1.18,33.45,33.45,0,0,0-9.77-.83,3.17,3.17,0,0,0-1.36.3,3.36,3.36,0,0,0-.83.85c-.42.54-1,1.37-1.66,2.33a71,71,0,0,1-5.4,7.07.5.5,0,0,1-.74-.68,68.56,68.56,0,0,0,5.32-7c.67-1,1.25-1.8,1.69-2.36a3.18,3.18,0,0,1,2.91-1.53,34.09,34.09,0,0,1,10.07.85,5.41,5.41,0,0,1,3,1.5,1.74,1.74,0,0,1,.48,1.14c0,.44-.22,1.08-1.25,1.63a14.15,14.15,0,0,1-5.18,1.29,13,13,0,0,1-3.41-.11c-.49-.07-1-.13-1.61-.17a7,7,0,0,1,0,3.87,12.65,12.65,0,0,1-3,4.23l-.09.09A.52.52,0,0,1,217.87,154.78Z" fill="#231f20"></path><path d="M157.11,132s14.22,48.15,18.6,45.85S205.87,153,205.87,153l11.29,15s-34.45,54.75-45.42,48.9-22.39-36.79-22.39-36.79Z" fill="#7209b7"></path><path d="M86.15,173.32l-16.51-4.18C70.27,168,80.3,137.87,89.49,132c7.9-6.57,23.76-7.21,41.71-7.91a55.4,55.4,0,0,1,17.09,1.67c20.94,5.79,11.87,48.5,11.87,48.5s2.29,20.45,5.89,60.86c0,0-29.46,5.68-80.83,2.81C85.22,238,86.64,178.64,86.15,173.32Z" fill="#7209b7"></path><polygon points="140.55 186.51 135.31 196.75 124.52 188.15 127.03 148.68 124.52 145.54 127.68 140.72 132.07 145.21 129.17 148.54 140.55 186.51" fill="#fff"></polygon><path d="M133.25,120.77l2.68,13.44s-4.22,8.93-13.2,7.44S112,133.44,112,133.44l-3.69-25.72s-7.67-9.66-3.81-20.09,28.15-10.86,30.31,3.55c0,0,5.13,15.13,4.57,22S133.25,120.77,133.25,120.77Z" fill="#fff"></path><path d="M124.7,142.32a12.36,12.36,0,0,1-2-.18c-9.2-1.52-11.06-8.28-11.14-8.57l-3.68-25.65c-.84-1.13-7.49-10.5-3.8-20.46,1.7-4.58,8.19-8.73,17.33-7.78,6,.62,12.82,3.94,14,11.43.19.54,5.13,15.22,4.57,22.16-.49,5.94-4.56,7.51-6,7.89l2.58,13a.48.48,0,0,1,0,.31C136.35,134.51,132.56,142.32,124.7,142.32Zm-5.62-61.76c-5.88,0-12.3,2.34-14.11,7.24-3.72,10,3.65,19.51,3.73,19.61a.51.51,0,0,1,.1.24l3.69,25.72c.06.21,1.78,6.37,10.32,7.79,8,1.32,12-5.86,12.6-7l-2.65-13.29a.46.46,0,0,1,.09-.39.5.5,0,0,1,.34-.2c.21,0,5.17-.68,5.69-7.08.55-6.74-4.49-21.69-4.54-21.84-.9-6-5.79-9.93-13.08-10.68C120.55,80.6,119.82,80.56,119.08,80.56Z" fill="#231f20"></path><path d="M139.57,111.13s-.91-2.71-10.91-1S119,122.89,113.06,118s-2.76-13.49-3.37-21.49c-.79-10.25-3-10-5.19-8.89-7.75,3.76-5.28,19.93,5.26,34.33,3.73,5.1,27,14.6,30.09.74C141.58,115,139.57,111.13,139.57,111.13Z" fill="#d1d3d4"></path><path d="M129.53,130.41c-8,0-17.78-4.89-20.17-8.15-7.46-10.2-11.25-21.94-9.44-29.22a8.41,8.41,0,0,1,4.36-5.86,3.18,3.18,0,0,1,3-.26c1.55.89,2.43,3.84,2.87,9.56a51.52,51.52,0,0,1-.12,7.25c-.35,5.46-.67,10.62,3.32,13.89a3.68,3.68,0,0,0,2.56,1.12c1.1-.11,2-1.27,3.22-2.73,1.85-2.31,4.4-5.46,9.41-6.34,9.76-1.71,11.26.79,11.45,1.26s2,4.34.32,11.88a9.07,9.07,0,0,1-7.46,7.28A16.56,16.56,0,0,1,129.53,130.41ZM106.19,87.62a3.58,3.58,0,0,0-1.47.46,7.34,7.34,0,0,0-3.83,5.2c-1.75,7,2,18.42,9.27,28.39,2.54,3.47,14.56,9.1,22.52,7.44a8,8,0,0,0,6.69-6.52c1.66-7.43-.23-11.2-.25-11.23a.08.08,0,0,0,0,0c0-.09-1.27-2.24-10.36-.66-4.64.81-7,3.68-8.81,6-1.27,1.58-2.37,3-3.89,3.1a4.49,4.49,0,0,1-3.29-1.34c-4.39-3.59-4-9-3.68-14.72a52.77,52.77,0,0,0,.12-7.11c-.4-5.14-1.2-8.09-2.38-8.77A1.14,1.14,0,0,0,106.19,87.62Z" fill="#231f20"></path><path d="M111.13,106.7a6.91,6.91,0,0,0-3.71-3.82,5.55,5.55,0,0,0-4.26-.32c-2.25.82-2.89,3-2.43,5.14a10.44,10.44,0,0,0,.88,2.63,7,7,0,0,0,9.53,3" fill="#fff"></path><path d="M107.83,114.63a7.41,7.41,0,0,1-2.23-.34,7.51,7.51,0,0,1-4.43-3.73,11,11,0,0,1-.93-2.76c-.57-2.69.48-4.88,2.75-5.71a6,6,0,0,1,4.65.34,7.33,7.33,0,0,1,4,4.11.49.49,0,0,1-.32.63.49.49,0,0,1-.63-.32,6.43,6.43,0,0,0-3.44-3.52,5.06,5.06,0,0,0-3.88-.3c-1.79.65-2.58,2.36-2.11,4.56a10,10,0,0,0,.83,2.52,6.52,6.52,0,0,0,8.85,2.75.5.5,0,0,1,.47.89A7.58,7.58,0,0,1,107.83,114.63Z" fill="#231f20"></path><path d="M134.56,107.18c-.26,0-.51,0-.76,0A8.47,8.47,0,0,1,126.12,98h0a8.46,8.46,0,1,1,8.44,9.2Zm-7.45-9.12a7.47,7.47,0,0,0,6.77,8.09,7.46,7.46,0,1,0-6.77-8.09Z" fill="#231f20"></path><path d="M117.88,107.94l-.76,0a8.45,8.45,0,0,1-7.68-9.17l.5,0-.5,0a8.47,8.47,0,0,1,9.17-7.68,8.46,8.46,0,0,1-.73,16.88Zm0-15.91a7.45,7.45,0,0,0-.64,14.88,7.45,7.45,0,0,0,6.38-12.21,7.39,7.39,0,0,0-5.06-2.64C118.3,92,118.08,92,117.85,92Z" fill="#231f20"></path><path d="M162.64,202.22a.49.49,0,0,1-.49-.45l-5.53-61a.5.5,0,1,1,1-.09l5.53,61a.5.5,0,0,1-.45.54Z" fill="#231f20"></path><path d="M126.89,109.72a10,10,0,0,1-1.31-.08.51.51,0,0,1-.42-.57.5.5,0,0,1,.57-.42c.74.11,3,.21,3.64-.66.4-.54-1.21-3.53-3.44-6.4a.5.5,0,0,1,.09-.7.5.5,0,0,1,.7.08c1.4,1.8,4.53,6.15,3.46,7.61C129.48,109.53,128,109.72,126.89,109.72Z" fill="#231f20"></path><ellipse cx="119.77" cy="100.7" rx="1.15" ry="1.61" transform="translate(-2.31 2.82) rotate(-1.33)" fill="#231f20"></ellipse><ellipse cx="130.56" cy="99.59" rx="1.15" ry="1.61" transform="translate(-24.82 46.48) rotate(-18.47)" fill="#231f20"></ellipse><path d="M129.92,120.29A10.43,10.43,0,0,1,123.6,118a.5.5,0,0,1,.67-.75c.24.22,5.88,5.15,12.09-.85a.49.49,0,0,1,.7,0,.5.5,0,0,1,0,.71A10.14,10.14,0,0,1,129.92,120.29Z" fill="#231f20"></path><path d="M136.07,204.43s14.8-1.84,18.73-1a28.56,28.56,0,0,1,15.39,10.21,7.3,7.3,0,0,1,1.55,3.2,3,3,0,0,1-1.38,3.07c-1.33.65-2.86-.13-4.25-.59-3.16-1.05-6.59-.43-9.89,0a16,16,0,0,1-3.91.16c-3-.35-5.53-2.13-8.28-3.29-5-2.1-10.77-1.94-16-1.11" fill="#fff"></path><path d="M169.24,220.7a8,8,0,0,1-2.6-.62l-.69-.25c-2.74-.91-5.77-.5-8.7-.11l-1,.13a16.25,16.25,0,0,1-4,.15,18.25,18.25,0,0,1-6-2.16c-.8-.4-1.62-.82-2.44-1.16-4.14-1.74-9.28-2.1-15.74-1.07a.51.51,0,0,1-.57-.42.5.5,0,0,1,.42-.57c6.64-1.05,12-.68,16.28,1.14.85.36,1.69.78,2.5,1.18a17.15,17.15,0,0,0,5.64,2.07,15.36,15.36,0,0,0,3.78-.15l1-.13c3-.41,6.19-.83,9.15.15l.72.26c1.15.41,2.24.81,3.16.36a2.47,2.47,0,0,0,1.11-2.55,6.86,6.86,0,0,0-1.47-3,27.89,27.89,0,0,0-15.09-10c-3.79-.85-18.42.95-18.56,1a.49.49,0,0,1-.56-.44.5.5,0,0,1,.43-.56c.61-.07,14.94-1.84,18.91-1a29.1,29.1,0,0,1,15.68,10.4,7.84,7.84,0,0,1,1.65,3.43,3.43,3.43,0,0,1-1.66,3.59A3.07,3.07,0,0,1,169.24,220.7Z" fill="#231f20"></path><path d="M69.64,169.14s-16.22,48.27-8.27,53.75,71.46,2.8,71.46,2.8l4-22.77s-43.74,5.62-42.65,2.38,6.4-40,6.4-40Z" fill="#7209b7"></path><rect x="149.72" y="221.75" width="106.36" height="3.99" rx="1.95" fill="#231f20"></rect><path d="M254.12,226.23H151.67a2.49,2.49,0,0,1,0-5H254.12a2.49,2.49,0,0,1,0,5Zm-102.45-4a1.45,1.45,0,0,0-1.45,1.45,1.47,1.47,0,0,0,1.45,1.53H254.12a1.46,1.46,0,0,0,1.46-1.45,1.48,1.48,0,0,0-1.46-1.53Z" fill="#231f20"></path><polygon points="216.61 172.06 279.29 172.06 254.21 223.69 191.53 223.69 216.61 172.06" fill="#231f20"></polygon><path d="M254.21,224.19H191.53a.5.5,0,0,1-.42-.23.51.51,0,0,1,0-.48l25.08-51.64a.51.51,0,0,1,.45-.28h62.68a.49.49,0,0,1,.42.24.51.51,0,0,1,0,.48l-25.08,51.63A.51.51,0,0,1,254.21,224.19Zm-61.88-1h61.56l24.6-50.63H216.93Z" fill="#231f20"></path><path d="M136.84,203.42h0L90.13,200a.49.49,0,0,1-.36-.21.47.47,0,0,1-.08-.41l10.42-41.69a.49.49,0,0,1,.6-.36.48.48,0,0,1,.36.6L90.8,199l46.08,3.38a.5.5,0,0,1,0,1Z" fill="#231f20"></path><path d="M115,226.19a.5.5,0,0,1-.48-.37.49.49,0,0,1,.34-.61c.14,0,13.19-3.7,18.85-6.41a.5.5,0,0,1,.66.24.49.49,0,0,1-.23.66c-5.73,2.75-18.47,6.32-19,6.47Z" fill="#231f20"></path><rect x="47.61" y="225.69" width="265.75" height="16.22" rx="4.87" fill="#fff"></rect><path d="M308.49,242.41h-256A5.37,5.37,0,0,1,47.11,237v-6.49a5.36,5.36,0,0,1,5.36-5.36h256a5.36,5.36,0,0,1,5.36,5.36V237A5.37,5.37,0,0,1,308.49,242.41Zm-256-16.22a4.36,4.36,0,0,0-4.36,4.36V237a4.37,4.37,0,0,0,4.36,4.37h256a4.37,4.37,0,0,0,4.36-4.37v-6.49a4.37,4.37,0,0,0-4.36-4.36Z" fill="#231f20"></path><path d="M315.41,107.73a1.64,1.64,0,0,0-.63-.51,2,2,0,0,0-.86-.2,1.86,1.86,0,0,0-.87.2,1.91,1.91,0,0,0-.62.54,2.24,2.24,0,0,0-.37.74,3,3,0,0,0-.12.84,2.62,2.62,0,0,0,.13.83,2.21,2.21,0,0,0,.38.75,1.87,1.87,0,0,0,1.53.73,2.29,2.29,0,0,0,.85-.16,1.58,1.58,0,0,0,.67-.48l1.13,1.14a2.9,2.9,0,0,1-1.15.74,4.17,4.17,0,0,1-1.51.27,4.44,4.44,0,0,1-1.51-.26,3.51,3.51,0,0,1-1.25-.75,3.42,3.42,0,0,1-.84-1.2,4,4,0,0,1-.31-1.61,3.81,3.81,0,0,1,.31-1.58,3.57,3.57,0,0,1,.83-1.21,3.69,3.69,0,0,1,1.23-.76,4.07,4.07,0,0,1,1.49-.27,4.11,4.11,0,0,1,1.55.3,2.94,2.94,0,0,1,1.18.82Z" fill="#d1d3d4"></path><path d="M213.31,109.71h-3.39v-1.1l3.12-4.72h1.49v4.75h1v1.07h-1v1.52h-1.22Zm0-4.36h0l-2.09,3.29h2.11Z" fill="#d1d3d4"></path><path d="M221.26,105h-3l-.07,1.59a2.24,2.24,0,0,1,.42-.08l.44,0a3.22,3.22,0,0,1,1,.16,2.25,2.25,0,0,1,.8.45,2.08,2.08,0,0,1,.54.73,2.5,2.5,0,0,1,.19,1,2.72,2.72,0,0,1-.21,1.09,2.54,2.54,0,0,1-.58.81,2.6,2.6,0,0,1-.85.51,3,3,0,0,1-1,.18,2.74,2.74,0,0,1-1.55-.43,2.46,2.46,0,0,1-.92-1.18l1.13-.41a1.44,1.44,0,0,0,.51.7,1.48,1.48,0,0,0,.86.26,1.51,1.51,0,0,0,.53-.09,1.62,1.62,0,0,0,.44-.27,1.35,1.35,0,0,0,.29-.44,1.46,1.46,0,0,0,.11-.6,1.58,1.58,0,0,0-.14-.7,1.32,1.32,0,0,0-.38-.46,1.43,1.43,0,0,0-.52-.23,2.38,2.38,0,0,0-.59-.07l-.45,0a3.58,3.58,0,0,0-.45.09l-.44.13-.37.15.12-4h4.18Z" fill="#d1d3d4"></path><path d="M222.76,105.7a1.94,1.94,0,0,1,.15-.76,2.11,2.11,0,0,1,.41-.61,2,2,0,0,1,.62-.41,2,2,0,0,1,1.5,0,2.11,2.11,0,0,1,.61.41,1.91,1.91,0,0,1,.56,1.37,1.86,1.86,0,0,1-.15.75,1.91,1.91,0,0,1-1,1,2,2,0,0,1-2.12-.41,2.11,2.11,0,0,1-.41-.61A1.86,1.86,0,0,1,222.76,105.7Zm2.86,0a.92.92,0,1,0-.27.66A.9.9,0,0,0,225.62,105.7Zm3.26-2.14.87.4-4.32,7.6-.86-.39Zm-1.17,5.87a1.86,1.86,0,0,1,.15-.75,1.89,1.89,0,0,1,.42-.62,2,2,0,0,1,.61-.41,2,2,0,0,1,1.5,0,2,2,0,0,1,.61.41,1.89,1.89,0,0,1,.42.62,2,2,0,0,1,0,1.5,2,2,0,0,1-.42.61,1.82,1.82,0,0,1-.61.41,1.95,1.95,0,0,1-1.5,0,1.82,1.82,0,0,1-.61-.41,2,2,0,0,1-.42-.61A1.86,1.86,0,0,1,227.71,109.43Zm2.86,0a.9.9,0,0,0-.27-.67.88.88,0,0,0-.66-.27.94.94,0,1,0,0,1.87.88.88,0,0,0,.66-.27A.9.9,0,0,0,230.57,109.43Z" fill="#d1d3d4"></path><path d="M294.52,153.43v5.07h.05a2.8,2.8,0,0,1,.34-.37,3.05,3.05,0,0,1,.51-.37,2.84,2.84,0,0,1,.68-.27,3,3,0,0,1,.89-.12,3.46,3.46,0,0,1,2.53,1.1,3.57,3.57,0,0,1,.72,1.21,4.22,4.22,0,0,1,.25,1.48,4.58,4.58,0,0,1-.24,1.5,3.88,3.88,0,0,1-.71,1.22,3.3,3.3,0,0,1-2.6,1.13,3.16,3.16,0,0,1-1.43-.33,2.44,2.44,0,0,1-1.05-1h0v1.08h-1.71V153.43Zm4.14,7.73a2.66,2.66,0,0,0-.13-.83,2.31,2.31,0,0,0-.38-.75,2,2,0,0,0-.65-.53,2,2,0,0,0-.92-.2,1.82,1.82,0,0,0-.88.21,2.22,2.22,0,0,0-.67.54,2.13,2.13,0,0,0-.42.75,2.48,2.48,0,0,0-.15.84,2.44,2.44,0,0,0,.15.84,2.09,2.09,0,0,0,.42.74,2.22,2.22,0,0,0,.67.54,2.08,2.08,0,0,0,1.8,0,2,2,0,0,0,.65-.54,2.21,2.21,0,0,0,.38-.75A2.74,2.74,0,0,0,298.66,161.16Z" fill="#d1d3d4"></path><path d="M294.52,153.43v5.07h.05a2.8,2.8,0,0,1,.34-.37,3.05,3.05,0,0,1,.51-.37,2.84,2.84,0,0,1,.68-.27,3,3,0,0,1,.89-.12,3.46,3.46,0,0,1,2.53,1.1,3.57,3.57,0,0,1,.72,1.21,4.22,4.22,0,0,1,.25,1.48,4.58,4.58,0,0,1-.24,1.5,3.88,3.88,0,0,1-.71,1.22,3.3,3.3,0,0,1-2.6,1.13,3.16,3.16,0,0,1-1.43-.33,2.44,2.44,0,0,1-1.05-1h0v1.08h-1.71V153.43Zm4.14,7.73a2.66,2.66,0,0,0-.13-.83,2.31,2.31,0,0,0-.38-.75,2,2,0,0,0-.65-.53,2,2,0,0,0-.92-.2,1.82,1.82,0,0,0-.88.21,2.22,2.22,0,0,0-.67.54,2.13,2.13,0,0,0-.42.75,2.48,2.48,0,0,0-.15.84,2.44,2.44,0,0,0,.15.84,2.09,2.09,0,0,0,.42.74,2.22,2.22,0,0,0,.67.54,2.08,2.08,0,0,0,1.8,0,2,2,0,0,0,.65-.54,2.21,2.21,0,0,0,.38-.75A2.74,2.74,0,0,0,298.66,161.16Z" fill="#d1d3d4"></path><path d="M235.78,120.51H183.62a.5.5,0,0,1-.47-.33.52.52,0,0,1,.16-.56l52.16-40.85a.5.5,0,1,1,.62.78l-51,40h50.71a.51.51,0,0,1,.5.5A.5.5,0,0,1,235.78,120.51Z" fill="#d1d3d4"></path><path d="M202.9,124.52a.53.53,0,0,1-.27-.08.51.51,0,0,1-.16-.69c.07-.1,6.44-10.71-6.83-25a.51.51,0,0,1,0-.71.5.5,0,0,1,.71,0c7.19,7.73,8.71,14.41,8.72,18.65a15,15,0,0,1-1.78,7.53A.5.5,0,0,1,202.9,124.52Z" fill="#d1d3d4"></path><path d="M333.7,193.72H305.17a.5.5,0,0,1-.5-.5V181.39a.5.5,0,0,1,.5-.5H333.7a.5.5,0,0,1,.5.5v11.83A.5.5,0,0,1,333.7,193.72Zm-28-1H333.2V181.89H305.67Z" fill="#d1d3d4"></path><rect x="305.17" y="187.31" width="28.52" height="5.92" fill="#d1d3d4"></rect><path d="M333.7,193.72H305.17a.5.5,0,0,1-.5-.5v-5.91a.5.5,0,0,1,.5-.5H333.7a.5.5,0,0,1,.5.5v5.91A.5.5,0,0,1,333.7,193.72Zm-28-1H333.2v-4.91H305.67Z" fill="#d1d3d4"></path></g></svg>